<svg width="37" height="12" viewBox="0 0 37 12" fill="none" xmlns="http://www.w3.org/2000/svg">
<path d="M32.7473 5.65258L35.946 0.325684H32.6821L30.9815 3.03256L29.1505 0.325684H25.5754L29.3459 5.64535L25.5754 11.6598H29.1505L31.1913 8.2509L33.6085 11.6598H36.8L32.7473 5.65258Z" fill="white"/>
<path d="M20.9293 0.325684L18.4977 6.38359L16.1964 0.325684H13.2943L11.3693 11.6598H14.3003L15.2483 5.13148H15.2773L17.8753 11.6598H19.0477L21.7688 5.13148H21.805L22.63 11.6598H25.5755L23.8603 0.325684H20.9293Z" fill="white"/>
<path d="M5.98498 5.34138V7.64295H8.37318C8.25738 8.93848 7.28039 9.59711 6.01392 9.59711C4.08889 9.59711 3.04676 7.82389 3.04676 6.07238C3.04676 4.35706 4.04547 2.5187 5.9705 2.5187C7.15013 2.5187 7.99685 3.23522 8.40212 4.30639L11.1811 3.14114C10.2114 1.04222 8.4166 0 6.10077 0C2.47504 0 0 2.4029 0 6.0579C0 9.59711 2.46057 12 5.99945 12C7.88106 12 9.53833 11.3269 10.6383 9.79253C11.6371 8.38842 11.7601 6.98432 11.789 5.34138C11.789 5.34138 5.98498 5.34138 5.98498 5.34138Z" fill="white"/>
</svg>
