<svg width="22" height="20" viewBox="0 0 22 20" fill="none" xmlns="http://www.w3.org/2000/svg">
<mask id="mask0_916_10512" style="mask-type:alpha" maskUnits="userSpaceOnUse" x="9" y="0" width="13" height="10">
<path fill-rule="evenodd" clip-rule="evenodd" d="M9.47095 0H21.1967V9.28604H9.47095V0Z" fill="white"/>
</mask>
<g mask="url(#mask0_916_10512)">
<path fill-rule="evenodd" clip-rule="evenodd" d="M9.47095 5.60332L10.7486 4.3562L13.1558 6.76381L19.9594 -0.00012207L21.1967 1.20737L13.118 9.28593L9.47095 5.60332Z" fill="#76B72A"/>
</g>
<mask id="mask1_916_10512" style="mask-type:alpha" maskUnits="userSpaceOnUse" x="0" y="0" width="20" height="20">
<path fill-rule="evenodd" clip-rule="evenodd" d="M0 0.0540771H19.8702V20.0001H0V0.0540771Z" fill="white"/>
</mask>
<g mask="url(#mask1_916_10512)">
<path fill-rule="evenodd" clip-rule="evenodd" d="M19.2553 5.47196L18.2203 6.5069C18.8088 8.46105 18.677 9.98909 16.6259 12.0402L14.2435 14.4224L5.57784 5.75674L7.97704 3.35754C10.5258 0.808594 12.6444 0.997626 15.102 2.51286L16.0588 1.55613C13.0169 -0.519538 10.1463 -0.647371 7.03258 2.46622L0 9.4988L10.5014 20.0001L17.5338 12.9677C20.1329 10.3684 20.3332 8.10491 19.2553 5.47196Z" fill="#878786"/>
</g>
<mask id="mask2_916_10512" style="mask-type:alpha" maskUnits="userSpaceOnUse" x="0" y="0" width="20" height="20">
<path fill-rule="evenodd" clip-rule="evenodd" d="M0 0.0540771H19.8702V20.0001H0V0.0540771Z" fill="white"/>
</mask>
<g mask="url(#mask2_916_10512)">
<path fill-rule="evenodd" clip-rule="evenodd" d="M19.2553 5.47196L18.2203 6.5069C18.8088 8.46105 18.677 9.98909 16.6259 12.0402L14.2435 14.4224L5.57784 5.75674L7.97704 3.35754C10.5258 0.808594 12.6444 0.997626 15.102 2.51286L16.0588 1.55613C13.0169 -0.519538 10.1463 -0.647371 7.03258 2.46622L0 9.4988L10.5014 20.0001L17.5338 12.9677C20.1329 10.3684 20.3332 8.10491 19.2553 5.47196Z" fill="#878786"/>
</g>
</svg>
