<svg width="43" height="14" viewBox="0 0 43 14" fill="none" xmlns="http://www.w3.org/2000/svg">
<g clip-path="url(#clip0_910_10319)">
<path d="M38.2087 6.5946L41.9409 0.379883H38.1327L36.1484 3.5379L34.0121 0.379883H29.8408L34.2401 6.58616L29.8408 13.603H34.0121L36.3933 9.62596L39.2136 13.603H42.9373L38.2087 6.5946Z" fill="#333333"/>
<path d="M24.4198 0.379883L21.5826 7.44743L18.8975 0.379883H15.5115L13.2654 13.603H16.6852L17.7913 5.98664H17.8251L20.8565 13.603H22.2244L25.3993 5.98664H25.4415L26.4041 13.603H29.8408L27.8396 0.379883H24.4198Z" fill="#333333"/>
<path d="M6.98311 6.2316V8.91677H9.7696C9.6345 10.4282 8.49457 11.1966 7.01689 11.1966C4.77081 11.1966 3.55489 9.12786 3.55489 7.08444C3.55489 5.08323 4.72015 2.93848 6.96623 2.93848C8.34258 2.93848 9.33052 3.77443 9.80338 5.02413L13.0458 3.66466C11.9144 1.21592 9.82027 0 7.11822 0C2.88782 0 0 2.80338 0 7.06755C0 11.1966 2.87093 14 7 14C9.19542 14 11.1291 13.2147 12.4125 11.4246C13.5778 9.78649 13.7214 8.14837 13.7551 6.2316H6.98311Z" fill="#333333"/>
</g>
<defs>
<clipPath id="clip0_910_10319">
<rect width="42.9373" height="14" fill="white"/>
</clipPath>
</defs>
</svg>
