<svg width="509" height="166" viewBox="0 0 509 166" fill="none" xmlns="http://www.w3.org/2000/svg">
<g clip-path="url(#clip0_624_3265)">
<path d="M452.5 78.1L496.7 4.5H451.6L428.1 41.9L402.8 4.5H353.4L405.5 78L353.4 161.1H402.8L431 114L464.4 161.1H508.5L452.5 78.1Z" fill="#1C449B"/>
<path d="M289.2 4.5L255.6 88.2L223.8 4.5H183.7L157.1 161.1H197.6L210.7 70.9H211.1L247 161.1H263.2L300.8 70.9H301.3L312.7 161.1H353.4L329.7 4.5H289.2Z" fill="#1C449B"/>
<path d="M82.7 73.8V105.6H115.7C114.1 123.5 100.6 132.6 83.1 132.6C56.5 132.6 42.1 108.1 42.1 83.9C42.1 60.2 55.9 34.8 82.5 34.8C98.8 34.8 110.5 44.7 116.1 59.5L154.5 43.4C141.1 14.4 116.3 0 84.3 0C34.2 0 0 33.2 0 83.7C0 132.6 34 165.8 82.9 165.8C108.9 165.8 131.8 156.5 147 135.3C160.8 115.9 162.5 96.5 162.9 73.8H82.7Z" fill="#1C449B"/>
</g>
<defs>
<clipPath id="clip0_624_3265">
<rect width="508.5" height="165.8" fill="white"/>
</clipPath>
</defs>
</svg>
