<svg width="26" height="26" viewBox="0 0 26 26" fill="none" xmlns="http://www.w3.org/2000/svg">
<g clip-path="url(#clip0_910_10379)">
<path d="M22.7467 26H3.25325C2.39123 25.9974 1.56524 25.6539 0.955696 25.0443C0.34615 24.4348 0.00257195 23.6088 0 22.7467L0 3.25325C0.00257195 2.39123 0.34615 1.56524 0.955696 0.955696C1.56524 0.34615 2.39123 0.00257195 3.25325 0H22.7467C23.6088 0.00257195 24.4348 0.34615 25.0443 0.955696C25.6539 1.56524 25.9974 2.39123 26 3.25325V22.7467C25.9974 23.6088 25.6539 24.4348 25.0443 25.0443C24.4348 25.6539 23.6088 25.9974 22.7467 26Z" fill="#FFD800"/>
<path d="M4.90092 10.3731C5.13817 10.46 5.45261 10.3024 5.68092 10.2618C5.90761 10.2228 6.83467 10.014 6.65917 10.2252C6.56086 10.3438 6.30655 10.3447 6.07986 10.4113C5.76542 10.5039 5.26086 10.5559 5.24136 10.9605C5.19667 11.9233 6.69249 11.2831 7.13124 11.1263C8.31911 10.7127 9.68167 10.642 10.8834 10.4405C12.2175 10.2187 13.589 10.1984 14.9353 10.1464C16.3523 10.092 17.8774 10.0327 19.27 10.2293C19.6353 10.2801 20.0016 10.3245 20.3685 10.3625C20.6951 10.3958 21.3841 10.6965 21.675 10.5583C21.939 10.4332 21.8196 10.1212 21.9561 9.96197C22.1527 9.73284 22.5403 9.77266 22.2705 9.28191C22.0658 8.90897 21.3183 8.78791 20.9315 8.86347C20.8925 8.62785 21.0729 8.73266 21.1209 8.60997C21.1583 8.5051 21.1735 8.3936 21.1655 8.28254C21.1575 8.17149 21.1265 8.0633 21.0745 7.96484C20.8674 7.60816 19.8802 7.48141 19.8802 7.48222C17.5142 7.10116 13.2567 6.69003 8.72455 7.21897C7.97217 7.30672 6.65267 7.40016 5.88242 7.71297C5.54199 7.85109 5.54686 7.85434 5.50461 8.07778C5.46398 8.39547 5.61673 8.76597 5.99861 8.68634C6.73067 8.53603 8.02336 8.32641 8.39386 8.23216C10.2212 7.76659 16.3052 7.85759 17.0884 8.04366C17.5727 8.14684 20.2328 8.23459 20.297 8.72128C14.0895 8.46453 11.7194 8.46697 6.14486 9.12916C5.6793 9.20635 5.3998 9.30791 5.03173 9.43222C4.5808 9.58416 4.27448 10.1415 4.90092 10.3731ZM13.1096 6.52428C13.3265 6.54297 15.0417 6.59416 15.14 5.92384C15.1961 5.54359 14.8199 4.92609 14.7119 4.81397C14.5697 4.69697 14.256 5.72153 14.1772 4.71322C14.165 4.54909 14.1228 4.29478 14.0448 4.13878C14.0058 4.06078 13.9579 4.00391 13.9002 4.00391C13.8661 4.00638 13.8333 4.01788 13.8051 4.03722C13.7361 4.09839 13.6828 4.17532 13.6499 4.26147C13.5524 4.50034 13.5102 5.42578 13.2705 5.44041C13.0097 5.45747 13.0178 4.84809 13.0527 4.67178C13.0584 4.64253 13.0519 4.63603 13.0405 4.63847C13.0154 4.64578 13.008 4.64984 12.9877 4.65716C12.8309 4.71728 12.6522 4.89928 12.6392 4.91228C12.3938 5.16416 12.0615 5.82147 12.2297 6.12372C12.4035 6.43491 12.926 6.50803 13.1096 6.52428ZM25.059 19.7428C25.043 19.6204 24.9923 19.5051 24.9128 19.4105C24.5894 18.9685 23.0717 18.6728 23.0709 18.6777C22.2043 18.4939 21.3297 18.3507 20.4497 18.2487C20.5895 17.5857 20.4432 16.3628 20.44 15.9379C20.4595 15.1782 20.4432 13.216 20.3864 12.7196C20.3425 12.2532 20.2799 12.0493 20.0248 11.6633C19.8412 11.3879 19.7851 11.119 19.3626 11.1612C18.9775 11.1994 18.8361 11.7332 18.9019 12.0582L19.0677 12.7188C19.1367 12.8553 19.3228 17.1372 19.2814 17.5101C19.2854 17.6905 19.2684 17.9237 19.2627 18.1211C18.1811 18.0206 17.0971 17.9474 16.0119 17.9017L16.0582 17.866C16.6147 17.4329 16.4222 16.8577 16.3287 16.2304C16.202 15.227 16.2987 12.3783 16.1792 12.0355C16.098 11.7673 15.8697 11.6122 15.6706 11.4066C15.4252 11.1539 15.1165 11.0767 14.8337 11.3668C14.5559 11.6187 14.9036 15.2148 14.9231 16.7951C14.9483 17.1258 14.8752 17.5402 15.0068 17.8603C14.8987 17.8562 12.0412 17.7961 11.8015 17.801C11.8047 17.7449 11.7674 17.6742 11.7405 17.6198C11.6525 17.4132 11.585 17.1985 11.539 16.9787C11.4853 16.6777 11.4525 16.3734 11.4407 16.0679C11.4196 15.4147 11.4797 13.3932 11.5529 12.8642C11.6341 12.2792 11.9461 11.2473 10.9321 11.4748C10.8224 11.4992 10.2854 11.5658 10.1415 11.6796C9.97499 11.8112 9.99042 12.1395 9.98392 12.3215C9.96036 13.0121 9.88399 15.1863 9.88805 15.7088C9.89374 16.1475 9.97174 16.7122 10.1326 17.1404C10.2309 17.4004 10.521 17.6596 10.8249 17.8237C10.2667 17.8392 9.72961 17.857 9.53867 17.8676C8.74805 17.9087 7.95839 17.9667 7.17024 18.0415L7.1613 18.0073C7.04349 17.6442 7.21248 16.1435 7.53992 13.329C7.61873 12.6505 7.4993 12.6237 7.08655 12.241C6.8493 12.0217 6.64861 11.873 6.23667 12.2037C5.97505 12.4133 6.0433 12.6822 5.99861 12.9853C5.8418 14.0407 5.6143 15.6982 5.5168 16.7723C5.48917 17.0689 5.53061 17.7473 5.60699 18.1593C5.6143 18.1788 5.61105 18.2007 5.6208 18.221C5.19203 18.279 4.76383 18.341 4.33623 18.4071C3.20523 18.5826 2.20586 18.6257 1.52661 18.9303C1.1098 19.1188 1.08542 19.1806 0.98711 19.3333C0.955476 19.3881 0.93763 19.4497 0.93511 19.5129C0.934297 19.5243 0.943235 19.6746 0.955422 19.7193C0.978398 19.8129 1.02519 19.899 1.09124 19.9691C1.1573 20.0393 1.24038 20.0912 1.33242 20.1198C1.38442 20.1361 1.69886 20.1621 1.73217 20.1653C2.49105 20.2417 2.90867 20.0573 3.65049 19.7648C7.32542 18.299 17.8416 18.7427 20.158 19.1806C21.1639 19.3813 22.7166 19.5909 23.6794 20.1418C23.8362 20.2279 23.9833 20.2905 24.1182 20.3311C24.1856 20.3514 24.2506 20.362 24.3099 20.3758C24.4714 20.4085 24.639 20.3918 24.7909 20.3278C24.876 20.2969 24.9481 20.2383 24.9957 20.1613C25.0291 20.0892 25.0536 20.0134 25.0688 19.9354C25.0694 19.8711 25.0662 19.8068 25.059 19.7428Z" fill="#333333"/>
</g>
<defs>
<clipPath id="clip0_910_10379">
<rect width="26" height="26" fill="white"/>
</clipPath>
</defs>
</svg>
