<svg width="256" height="256" viewBox="0 0 256 256" fill="none" xmlns="http://www.w3.org/2000/svg">
<path d="M224 256H32C14.4 256 0 241.6 0 224V32C0 14.4 14.4 0 32 0H224C241.6 0 256 14.4 256 32V224C256 241.6 241.6 256 224 256Z" fill="#FFD800"/>
<path d="M57.7299 78.61C59.7899 79.37 62.5199 78 64.4999 77.65C66.4599 77.31 74.5099 75.5 72.9899 77.33C72.1399 78.36 69.9299 78.37 67.9599 78.94C65.2299 79.74 60.8499 80.2 60.6799 83.71C60.2899 92.06 73.2699 86.51 77.0799 85.15C87.3899 81.56 99.2099 80.95 109.64 79.2C121.22 77.27 133.11 77.1 144.8 76.65C157.1 76.18 170.33 75.66 182.41 77.37C185.63 77.82 188.67 78.18 191.94 78.52C194.78 78.81 200.75 81.41 203.28 80.22C205.57 79.14 204.53 76.43 205.72 75.04C207.43 73.05 210.79 73.4 208.45 69.14C206.67 65.9 200.19 64.85 196.83 65.51C196.49 63.46 198.06 64.37 198.47 63.31C199.06 61.78 199.06 59.41 198.07 57.71C196.27 54.61 187.71 53.52 187.71 53.52C167.18 50.21 130.24 46.65 90.9199 51.24C84.3999 52 72.9499 52.82 66.2699 55.52C63.3099 56.72 63.3599 56.74 62.9899 58.68C62.6399 61.44 63.9599 64.65 67.2799 63.96C73.6299 62.65 84.8499 60.84 88.0599 60.02C103.92 55.98 156.7 56.77 163.5 58.38C167.7 59.28 190.78 60.03 191.34 64.26C137.48 62.03 116.92 62.05 68.5499 67.8C64.5099 68.47 62.0799 69.35 58.8999 70.43C54.9499 71.77 52.2999 76.6 57.7299 78.61ZM128.95 45.22C130.83 45.38 145.71 45.83 146.57 40.01C147.06 36.71 143.79 31.35 142.86 30.38C141.63 29.36 138.91 38.25 138.22 29.51C138.11 28.08 137.75 25.88 137.07 24.53C136.73 23.86 136.32 23.36 135.81 23.36C135.49 23.36 135.14 23.55 134.99 23.65C134.56 23.93 133.95 24.83 133.64 25.59C132.8 27.67 132.43 35.69 130.35 35.82C128.09 35.97 128.16 30.68 128.46 29.15C128.51 28.9 128.45 28.84 128.35 28.86C128.13 28.92 128.07 28.96 127.89 29.02C126.53 29.54 124.98 31.12 124.87 31.24C122.74 33.42 119.86 39.13 121.31 41.75C122.82 44.44 127.36 45.08 128.95 45.22ZM232.63 159.91C232.47 158.77 232.14 158.07 231.36 157.02C228.56 153.18 215.38 150.62 215.38 150.66C208.76 149.21 201.15 147.97 192.64 146.93C193.85 141.18 192.58 130.57 192.55 126.88C192.72 120.29 192.58 103.26 192.09 98.96C191.71 94.91 191.17 93.15 188.95 89.8C187.36 87.41 186.87 85.08 183.2 85.44C179.86 85.77 178.63 90.41 179.21 93.22L180.65 98.95C181.25 100.14 182.87 137.29 182.5 140.52C182.53 142.09 182.38 144.11 182.34 145.82C173.67 145 164.24 144.36 154.14 143.92L154.54 143.61C159.37 139.85 157.7 134.86 156.89 129.42C155.79 120.71 156.63 96 155.59 93.02C154.89 90.69 152.9 89.34 151.17 87.56C149.04 85.37 146.37 84.69 143.91 87.21C141.5 89.39 144.51 120.6 144.68 134.31C144.9 137.18 144.26 140.78 145.4 143.55C144.47 143.51 119.67 143 117.59 143.04C117.62 142.56 117.29 141.94 117.06 141.47C116.44 140.21 115.56 137.28 115.31 135.91C114.9 133.67 114.56 130.72 114.45 128.01C114.26 122.34 114.79 104.8 115.42 100.22C116.13 95.15 118.83 86.19 110.03 88.16C109.08 88.37 104.42 88.95 103.17 89.93C101.72 91.07 101.86 93.92 101.81 95.5C101.6 101.49 100.94 120.36 100.98 124.89C101.03 128.7 101.7 133.6 103.1 137.31C103.95 139.57 106.47 141.82 109.1 143.24C104.26 143.37 99.5999 143.53 97.9399 143.62C89.7699 144.08 83.4999 144.53 77.3899 145.13C77.3499 144.95 77.3499 144.95 77.3099 144.84C76.2899 141.69 77.7599 128.67 80.5899 104.25C81.2699 98.36 80.2399 98.13 76.6499 94.81C74.5899 92.91 72.8499 91.62 69.2799 94.49C67.0099 96.31 67.5999 98.64 67.2099 101.27C65.8499 110.43 63.8699 124.81 63.0299 134.13C62.7899 136.7 63.1499 142.59 63.8099 146.16C63.8699 146.33 63.8399 146.52 63.9299 146.7C60.3799 147.18 56.8099 147.7 52.7799 148.31C42.9699 149.83 34.2999 150.21 28.3999 152.85C24.7799 154.48 24.5699 155.02 23.7199 156.34C23.5099 156.7 23.3399 157.11 23.2699 157.9C23.2599 158 23.3399 159.3 23.4399 159.69C23.6399 160.47 24.0199 161.19 24.5499 161.79C25.1299 162.43 25.8799 162.91 26.7099 163.16C27.1599 163.3 29.8899 163.53 30.1799 163.56C36.7599 164.22 40.3899 162.62 46.8299 160.09C78.7199 147.37 169.96 151.22 190.05 155.02C198.78 156.76 212.25 158.58 220.6 163.36C221.96 164.1 223.24 164.65 224.41 165C224.99 165.18 225.56 165.26 226.07 165.39C227.35 165.69 228.71 165.42 228.94 165.37C229.4 165.28 229.84 165.15 230.24 164.98C231.05 164.64 231.7 164.14 232.01 163.53C232.23 163.1 232.51 162.26 232.64 161.57C232.73 161.31 232.69 160.39 232.63 159.91ZM41.7999 187.33H33.3299L40.7899 225.42H50.5899L56.2899 199.63L62.0399 225.42H71.8399L79.6699 187.33H71.7299L66.9399 216.47L60.7099 187.33H52.4499L46.1099 216.37L41.7999 187.33ZM108.58 187.33H84.7599V225.42H109.11V219.03H92.8099V209.55H106.71V203.16H92.8099V193.73H108.58V187.33ZM115.37 187.33V225.42H129.54C138.49 225.42 142.75 221.16 142.75 214.77C142.75 206.62 135.56 205.71 135.56 205.71C135.56 205.71 140.67 203.53 140.67 197.19C140.67 190.8 136.57 187.33 128.1 187.33H115.37ZM123.42 203.37V193.3H126.08C130.82 193.3 132.74 194.9 132.74 198.25C132.74 201.66 130.82 203.36 126.88 203.36L123.42 203.37ZM123.42 219.46V209.18H128.32C132.42 209.18 134.66 210.78 134.66 214.19C134.66 217.6 132.58 219.46 127.84 219.46H123.42ZM152.02 225.96C154.47 225.96 156.17 224.25 156.17 221.86C156.17 219.41 154.47 217.92 152.12 217.92C149.67 217.92 147.91 219.46 147.91 221.97C147.92 224.2 149.31 225.96 152.02 225.96ZM163.08 187.33V225.42H172.56C185.67 225.42 192.38 217.96 192.38 206.03C192.38 194.36 186.47 187.33 173.36 187.33H163.08ZM171.13 219.03V193.73H173.31C180.66 193.73 184.23 198.1 184.23 206.57C184.23 214.99 180.77 219.04 173.36 219.04L171.13 219.03ZM222.23 187.33H198.42V225.42H222.77V219.03H206.47V209.55H220.37V203.16H206.47V193.73H222.24V187.33H222.23Z" fill="#333333"/>
</svg>
