<svg width="36" height="24" viewBox="0 0 36 24" fill="none" xmlns="http://www.w3.org/2000/svg">
<path d="M5.81743 9.3269C6.16518 9.4552 6.62604 9.22393 6.96029 9.16484C7.29116 9.10744 8.6501 8.80189 8.39351 9.11082C8.25002 9.2847 7.87694 9.28639 7.54438 9.38261C7.08352 9.51766 6.34412 9.59531 6.31543 10.1878C6.24959 11.5974 8.44078 10.6605 9.08395 10.4309C10.8244 9.8249 12.8198 9.72192 14.5805 9.4265C16.5353 9.10069 18.5425 9.07199 20.5159 8.99603C22.5923 8.91669 24.8257 8.8289 26.865 9.11757C27.4086 9.19354 27.9218 9.25431 28.4738 9.31171C28.9532 9.36066 29.961 9.79958 30.3881 9.59869C30.7747 9.41637 30.5991 8.95889 30.8 8.72424C31.0887 8.3883 31.6559 8.44739 31.2609 7.72824C30.9604 7.18129 29.8665 7.00404 29.2993 7.11546C29.2419 6.76939 29.5069 6.92301 29.5761 6.74407C29.6757 6.48578 29.6757 6.0857 29.5086 5.79872C29.2047 5.2754 27.7597 5.09139 27.7597 5.09139C24.294 4.53262 18.058 3.93165 11.4203 4.7065C10.3197 4.8348 8.38676 4.97322 7.25909 5.42902C6.7594 5.63159 6.76784 5.63497 6.70538 5.96246C6.6463 6.42839 6.86913 6.97028 7.42959 6.8538C8.50155 6.63265 10.3956 6.3271 10.9375 6.18867C13.6149 5.50667 22.5248 5.64003 23.6727 5.91182C24.3818 6.06375 28.278 6.19036 28.3725 6.90444C19.2802 6.52799 15.8095 6.53136 7.64398 7.50204C6.96198 7.61514 6.55176 7.7637 6.01494 7.94601C5.34813 8.17222 4.90078 8.98759 5.81743 9.3269ZM17.8403 3.69025C18.1576 3.71726 20.6696 3.79322 20.8147 2.81073C20.8975 2.25365 20.3454 1.34881 20.1885 1.18506C19.9808 1.01288 19.5216 2.51362 19.4052 1.0382C19.3866 0.796796 19.3258 0.425408 19.211 0.197511C19.1536 0.0844064 19.0844 0 18.9983 0C18.9443 0 18.8852 0.0320742 18.8599 0.0489555C18.7873 0.0962231 18.6843 0.248155 18.632 0.376452C18.4902 0.727583 18.4277 2.08146 18.0766 2.10341C17.6951 2.12873 17.7069 1.23571 17.7576 0.977425C17.766 0.935222 17.7559 0.925094 17.739 0.92847C17.7018 0.938599 17.6917 0.945351 17.6613 0.95548C17.4317 1.04326 17.1701 1.30999 17.1515 1.33024C16.7919 1.69826 16.3058 2.66218 16.5505 3.10447C16.8054 3.55857 17.5719 3.66661 17.8403 3.69025ZM35.3428 23.0514C35.3158 22.8589 35.2601 22.7408 35.1284 22.5635C34.6557 21.9153 32.4308 21.4831 32.4308 21.4899C31.3132 21.2451 30.0285 21.0357 28.5919 20.8602C28.7962 19.8895 28.5818 18.0984 28.5768 17.4755C28.6055 16.363 28.5818 13.4881 28.4991 12.7622C28.435 12.0785 28.3438 11.7814 27.969 11.2159C27.7006 10.8125 27.6179 10.4191 26.9984 10.4799C26.4345 10.5356 26.2269 11.3189 26.3248 11.7933L26.5679 12.7606C26.6692 12.9614 26.9426 19.2328 26.8802 19.7781C26.8853 20.0431 26.8599 20.3841 26.8532 20.6728C25.3896 20.5344 23.7977 20.4263 22.0927 20.3521L22.1602 20.2997C22.9755 19.665 22.6936 18.8226 22.5569 17.9043C22.3712 16.4339 22.513 12.2626 22.3374 11.7595C22.2193 11.3662 21.8833 11.1383 21.5913 10.8378C21.2317 10.4681 20.781 10.3533 20.3657 10.7787C19.9589 11.1467 20.467 16.4153 20.4957 18.7298C20.5328 19.2143 20.4248 19.822 20.6172 20.2896C20.4602 20.2828 16.2737 20.1967 15.9226 20.2035C15.9276 20.1225 15.8719 20.0178 15.8331 19.9385C15.7284 19.7258 15.5799 19.2311 15.5377 18.9999C15.4684 18.6217 15.4111 18.1237 15.3925 17.6662C15.3604 16.7091 15.4499 13.7481 15.5562 12.9749C15.6761 12.1191 16.1319 10.6065 14.6463 10.9391C14.486 10.9745 13.6993 11.0724 13.4883 11.2379C13.2435 11.4303 13.2671 11.9114 13.2587 12.1781C13.2232 13.1893 13.1118 16.3748 13.1186 17.1396C13.127 17.7827 13.2401 18.6099 13.4765 19.2362C13.62 19.6177 14.0454 19.9976 14.4893 20.2373C13.6723 20.2592 12.8856 20.2862 12.6054 20.3014C11.2262 20.3791 10.1677 20.455 9.13629 20.5563C9.12953 20.5259 9.12953 20.5259 9.12278 20.5074C8.95059 19.9756 9.19875 17.7777 9.67649 13.6553C9.79128 12.661 9.6174 12.6221 9.01136 12.0617C8.66361 11.7409 8.36988 11.5232 7.76721 12.0076C7.38401 12.3149 7.48361 12.7082 7.41777 13.1522C7.18819 14.6985 6.85394 17.126 6.71214 18.6994C6.67162 19.1332 6.73239 20.1275 6.84381 20.7302C6.85394 20.7589 6.84887 20.791 6.86407 20.8214C6.26478 20.9024 5.66212 20.9902 4.9818 21.0931C3.32575 21.3497 1.86215 21.4139 0.866152 21.8596C0.25505 22.1347 0.219599 22.2259 0.0761083 22.4487C0.0406576 22.5095 0.0119597 22.5787 0.000142772 22.7121C-0.00154535 22.7289 0.0119597 22.9484 0.0288409 23.0142C0.0626035 23.1459 0.126752 23.2675 0.216223 23.3687C0.314134 23.4768 0.440744 23.5578 0.580858 23.6C0.656824 23.6236 1.11768 23.6625 1.16664 23.6675C2.27743 23.779 2.89022 23.5089 3.97737 23.0818C9.36081 20.9345 24.7633 21.5844 28.1547 22.2259C29.6285 22.5196 31.9024 22.8269 33.312 23.6338C33.5415 23.7587 33.7576 23.8515 33.9551 23.9106C34.053 23.941 34.1493 23.9545 34.2354 23.9765C34.4514 24.0271 34.681 23.9815 34.7198 23.9731C34.7975 23.9579 34.8718 23.936 34.9393 23.9073C35.076 23.8499 35.1858 23.7655 35.2381 23.6625C35.2752 23.5899 35.3225 23.4481 35.3445 23.3316C35.3596 23.2877 35.3529 23.1324 35.3428 23.0514Z" fill="#333333"/>
</svg>
